<svg width="2599" height="439" viewBox="0 0 2599 439" fill="none" xmlns="http://www.w3.org/2000/svg">
<path fill-rule="evenodd" clip-rule="evenodd" d="M0.0998719 3.56308C1.3264 5.52065 32.9947 48.988 70.4729 100.155C107.951 151.322 139.543 194.668 140.677 196.48C141.811 198.292 111.704 247.353 73.7744 305.509L4.80923 411.243L83.7526 412.056C152.035 412.757 163.163 412.235 166.167 408.177C168.079 405.597 181.69 382.349 196.418 356.512L223.192 309.537L260.569 361.08L297.949 412.623L380.277 412.69L462.602 412.76L450.721 396.826C399.459 328.084 316.919 213.394 316.912 210.899C316.909 209.209 347.311 162.773 384.47 107.709C421.631 52.6421 453.069 5.88183 454.329 3.79375C456.14 0.798208 439.851 0 376.889 0H297.153L267.233 51.8621C250.778 80.385 236.266 102.577 234.981 101.181C233.699 99.7817 216.466 76.4456 196.691 49.3188L160.732 0H79.3015C17.7631 0 -1.58468 0.871036 0.0998719 3.56308ZM632.624 8.89864C577.873 23.4241 536.75 56.1658 510.381 106.225C492.413 140.335 486.459 168.097 486.668 216.766C486.84 256.882 493.984 288.261 510.519 321.549C525.569 351.845 563.057 389.603 591.516 403.13C669.632 440.266 771.554 427.052 825.112 372.844C851.21 346.427 869.166 310.389 874.093 274.531L876.368 257.975H823.431H770.493L768.348 269.356C759.528 316.153 729.744 339.098 681.483 336.272C654.435 334.688 643.024 329.917 626.692 313.358C600.086 286.386 587.71 237.774 594.67 187.59C599.192 154.982 607.482 134.138 622.732 117.033C638.785 99.0291 655.621 90.6312 679.445 88.7434C723.434 85.2562 754.327 103.576 766.516 140.369L770.284 151.75H822.229H874.17L872.369 141.886C861.026 79.8084 821.845 34.7325 760.22 12.8624C729.314 1.89387 666.399 -0.0606676 632.624 8.89864ZM2203.68 7.27185C2161.37 17.4209 2123.17 44.5478 2107.96 75.2528C2096.87 97.6329 2094.39 136.845 2102.47 162.196C2114.56 200.158 2143.7 218.657 2234.46 245.969C2319.01 271.411 2328.84 277.269 2328.84 302.198C2328.84 329.194 2308.83 342.485 2267.73 342.791C2227.94 343.086 2196.71 325.234 2191.43 299.163C2187.05 277.584 2191.72 279.22 2134.46 279.22H2082.41L2082.44 290.601C2082.54 320.353 2099.29 356.127 2123.9 379.099C2157.07 410.071 2197.17 422.715 2262.23 422.715C2311.31 422.715 2340.15 416.797 2371.52 400.292C2417.75 375.961 2444.36 323.455 2436.1 272.834C2431.97 247.526 2423.12 230.83 2404.88 213.992C2380.39 191.375 2357.64 182.446 2253.51 154.579C2209.53 142.812 2199.22 135.834 2199.22 117.861C2199.22 94.1882 2225.23 79.8144 2262.75 82.7554C2294.66 85.2562 2314 98.7286 2318.77 121.773L2320.89 132.023L2370.72 132.857L2420.55 133.692V123.631C2420.55 107.23 2412.17 80.3607 2401.94 63.9505C2384.51 35.9708 2355.22 16.8958 2315.49 7.64821C2291.86 2.1488 2225.97 1.92722 2203.68 7.27185ZM1320.05 56.1475V100.155H1380H1439.94V256.458V412.76H1493.79H1547.64L1547.47 257.216L1547.31 101.673L1607.36 100.85L1667.42 100.028V56.0838V12.14H1493.73H1320.05V56.1475ZM1716.6 212.45V412.76H1882.6H2048.59V370.27V327.78H1936.39H1824.19V288.368V248.955L1923.33 248.154L2022.46 247.353L2023.32 207.181L2024.18 167.007L1923.95 166.209L1823.72 165.408V132.023V98.6375L1933.08 97.8393L2042.44 97.0442V54.5906V12.14H1879.52H1716.6V212.45ZM2494.32 212.45V412.76H2546.58H2598.84V212.45V12.14H2546.58H2494.32V212.45Z" fill="#D80100"/>
<path fill-rule="evenodd" clip-rule="evenodd" d="M632.288 8.61604C577.537 23.1415 536.413 55.8832 510.045 105.942C492.077 140.053 486.123 167.814 486.332 216.483C486.504 256.6 493.648 287.979 510.183 321.267C525.233 351.562 562.721 389.32 591.18 402.847C669.296 439.984 771.218 426.769 824.776 372.561C850.874 346.145 868.83 310.107 873.757 274.248L876.032 257.692H823.095H770.157L768.012 269.074C759.192 315.87 729.408 338.815 681.147 335.989C654.098 334.405 642.688 329.634 626.356 313.075C599.75 286.103 587.374 237.491 594.334 187.308C598.856 154.7 607.146 133.855 622.396 116.75C638.449 98.7465 655.285 90.3486 679.109 88.4608C723.097 84.9736 753.991 103.293 766.18 140.086L769.948 151.467H821.893H873.834L872.033 141.604C860.69 79.5258 821.509 34.4499 759.884 12.5798C728.978 1.61127 666.062 -0.343268 632.288 8.61604ZM2203.35 6.98925C2161.03 17.1383 2122.84 44.2652 2107.62 74.9702C2096.53 97.3503 2094.05 136.563 2102.13 161.914C2114.22 199.876 2143.37 218.374 2234.12 245.686C2318.67 271.128 2328.5 276.986 2328.5 301.915C2328.5 328.912 2308.49 342.202 2267.4 342.509C2227.6 342.803 2196.38 324.951 2191.09 298.88C2186.71 277.302 2191.38 278.937 2134.12 278.937H2082.07L2082.11 290.319C2082.2 320.071 2098.96 355.844 2123.56 378.816C2156.73 409.788 2196.83 422.432 2261.9 422.432C2310.98 422.432 2339.82 416.514 2371.18 400.01C2417.42 375.678 2444.02 323.173 2435.77 272.552C2431.64 247.243 2422.78 230.547 2404.55 213.709C2380.06 191.092 2357.31 182.163 2253.18 154.296C2209.2 142.529 2198.88 135.552 2198.88 117.579C2198.88 93.9056 2224.9 79.5319 2262.41 82.4728C2294.32 84.9736 2313.66 98.446 2318.43 121.491L2320.55 131.74L2370.38 132.575L2420.21 133.409V123.348C2420.21 106.947 2411.84 80.0781 2401.61 63.6679C2384.17 35.6883 2354.88 16.6133 2315.15 7.36562C2291.52 1.8662 2225.63 1.64462 2203.35 6.98925ZM1319.72 55.8649V99.8724H1379.66H1439.6V256.175V412.477H1493.45H1547.3L1547.14 256.934L1546.97 101.39L1607.03 100.567L1667.08 99.7449V55.8012V11.8574H1493.4H1319.72V55.8649ZM1716.26 212.167V412.477H1882.26H2048.26V369.987V327.497H1936.05H1823.85V288.085V248.672L1922.99 247.871L2022.13 247.07L2022.98 206.899L2023.84 166.724L1923.61 165.926L1823.38 165.125V131.74V98.3549L1932.74 97.5567L2042.11 96.7616V54.308V11.8574H1879.19H1716.26V212.167ZM2493.99 212.167V412.477H2546.24H2598.5V212.167V11.8574H2546.24H2493.99V212.167Z" fill="white"/>
<path d="M1295.95 351.046V316.241H1324.42C1319.51 331.153 1313.11 338.737 1295.95 351.046Z" fill="white"/>
<path d="M1273.8 72.6083H1261.14V104.249H1292.78C1289.7 89.5198 1285.55 82.5871 1273.8 72.6083Z" fill="white"/>
<path d="M1220.01 66.2802V37.8036C1236.29 44.1158 1243.49 50.0249 1251.65 66.2802H1220.01Z" fill="white"/>
<path d="M925.75 216.668C925.75 78.9364 1039.28 17.6421 1151.98 20.4012V58.37C1045.98 58.37 974.793 110.672 966.883 216.668H925.75Z" fill="#D80100"/>
<path d="M1136.16 438.057C998.428 438.057 923.08 337.186 925.839 224.483H966.883C966.883 330.479 1030.16 390.597 1136.16 398.507L1136.16 438.057Z" fill="white"/>
<circle cx="1151.98" cy="169.112" r="20.5664" fill="#D80100"/>
<rect x="1175.71" y="151.71" width="37.9688" height="37.9688" rx="1" fill="#2F9E41"/>
<rect x="1216.84" y="151.71" width="37.9688" height="37.9688" rx="1" fill="#2F9E41"/>
<rect x="1175.71" y="192.843" width="37.9688" height="37.9688" rx="1" fill="#2F9E41"/>
<rect x="1175.71" y="233.975" width="37.9688" height="37.9688" rx="1" fill="#2F9E41"/>
<rect x="1175.71" y="275.108" width="37.9688" height="37.9688" rx="1" fill="#2F9E41"/>
<rect x="1134.58" y="275.108" width="37.9688" height="37.9688" rx="1" fill="#2F9E41"/>
<rect x="1216.84" y="233.975" width="37.9688" height="37.9688" rx="1" fill="#2F9E41"/>
<rect x="1257.98" y="192.843" width="37.9688" height="37.9688" rx="1" fill="white"/>
<rect x="1292.78" y="151.71" width="37.9688" height="37.9688" rx="1" fill="white"/>
<rect x="1093.45" y="192.843" width="37.9688" height="37.9688" rx="1" fill="white"/>
<rect x="1052.31" y="192.843" width="37.9688" height="37.9688" rx="1" fill="white"/>
<rect x="1134.58" y="192.843" width="37.9688" height="37.9688" rx="1" fill="#2F9E41"/>
<rect x="1134.58" y="233.975" width="37.9688" height="37.9688" rx="1" fill="#2F9E41"/>
<rect x="1093.45" y="275.108" width="37.9688" height="37.9688" rx="1" fill="white"/>
<rect x="1093.45" y="316.241" width="34.8047" height="34.8047" rx="1" fill="white"/>
<rect x="1093.45" y="354.21" width="34.8047" height="34.8047" rx="1" fill="white"/>
<rect x="1131.41" y="351.046" width="37.9688" height="37.9688" rx="1" fill="white"/>
<rect x="1172.55" y="351.046" width="37.9688" height="37.9688" rx="1" fill="white"/>
<rect x="1052.31" y="316.241" width="34.8047" height="34.8047" rx="1" fill="white"/>
<rect x="1216.84" y="313.077" width="37.9688" height="37.9688" rx="1" fill="white"/>
<rect x="1257.98" y="275.108" width="37.9688" height="37.9688" rx="1" fill="white"/>
<rect x="1134.58" y="104.249" width="37.9688" height="37.9688" rx="1" fill="white"/>
<rect x="1093.45" y="69.4442" width="37.9688" height="37.9688" rx="1" fill="white"/>
<path d="M1295.6 351.046V316.241H1324.08C1319.17 331.153 1312.76 338.737 1295.6 351.046Z" fill="white"/>
<path d="M1273.45 72.6083H1260.8V104.249H1292.44C1289.36 89.5198 1285.21 82.5871 1273.45 72.6083Z" fill="white"/>
<path d="M1219.66 66.2802V37.8036C1235.95 44.1158 1243.14 50.0249 1251.3 66.2802H1219.66Z" fill="white"/>
<path d="M925.405 216.668C925.405 78.9364 1038.93 17.6421 1151.64 20.4012V58.37C1045.64 58.37 974.448 110.672 966.538 216.668H925.405Z" fill="#D80100"/>
<path d="M1135.82 438.057C998.083 438.057 922.735 337.186 925.494 224.483H966.538C966.538 330.479 1029.82 390.597 1135.82 398.507L1135.82 438.057Z" fill="white"/>
<circle cx="1151.64" cy="169.112" r="20.5664" fill="#D80100"/>
<rect x="1175.37" y="151.71" width="37.9688" height="37.9688" rx="1" fill="#2F9E41"/>
<rect x="1216.5" y="151.71" width="37.9688" height="37.9688" rx="1" fill="#2F9E41"/>
<rect x="1175.37" y="192.843" width="37.9688" height="37.9688" rx="1" fill="#2F9E41"/>
<rect x="1175.37" y="233.975" width="37.9688" height="37.9688" rx="1" fill="#2F9E41"/>
<rect x="1175.37" y="275.108" width="37.9688" height="37.9688" rx="1" fill="#2F9E41"/>
<rect x="1134.23" y="275.108" width="37.9688" height="37.9688" rx="1" fill="#2F9E41"/>
<rect x="1216.5" y="233.975" width="37.9688" height="37.9688" rx="1" fill="#2F9E41"/>
<rect x="1257.63" y="192.843" width="37.9688" height="37.9688" rx="1" fill="white"/>
<rect x="1292.44" y="151.71" width="37.9688" height="37.9688" rx="1" fill="white"/>
<rect x="1093.1" y="192.843" width="37.9688" height="37.9688" rx="1" fill="white"/>
<rect x="1051.97" y="192.843" width="37.9688" height="37.9688" rx="1" fill="white"/>
<rect x="1134.23" y="192.843" width="37.9688" height="37.9688" rx="1" fill="#2F9E41"/>
<rect x="1134.23" y="233.975" width="37.9688" height="37.9688" rx="1" fill="#2F9E41"/>
<rect x="1093.1" y="275.108" width="37.9688" height="37.9688" rx="1" fill="white"/>
<rect x="1093.1" y="316.241" width="34.8047" height="34.8047" rx="1" fill="white"/>
<rect x="1093.1" y="354.21" width="34.8047" height="34.8047" rx="1" fill="white"/>
<rect x="1131.07" y="351.046" width="37.9688" height="37.9688" rx="1" fill="white"/>
<rect x="1172.2" y="351.046" width="37.9688" height="37.9688" rx="1" fill="white"/>
<rect x="1051.97" y="316.241" width="34.8047" height="34.8047" rx="1" fill="white"/>
<rect x="1216.5" y="313.077" width="37.9688" height="37.9688" rx="1" fill="white"/>
<rect x="1257.63" y="275.108" width="37.9688" height="37.9688" rx="1" fill="white"/>
<rect x="1134.23" y="104.249" width="37.9688" height="37.9688" rx="1" fill="white"/>
<rect x="1093.1" y="69.4442" width="37.9688" height="37.9688" rx="1" fill="white"/>
</svg>
